<?xml version="1.0" encoding="UTF-8"?>
<svg width="107px" height="47px" viewBox="0 0 107 47" version="1.1" xmlns="http://www.w3.org/2000/svg" xmlns:xlink="http://www.w3.org/1999/xlink">
    <title>Untitled 2</title>
    <g id="Page-1" stroke="none" stroke-width="1" fill="none" fill-rule="evenodd">
        <g id="Group-3">
            <g id="Group">
                <path d="M21.3325243,13.1787817 C21.3325243,16.5385433 18.873301,18.7699395 14.8723301,18.7699395 C11.9674757,18.7699395 9.85097087,17.3258656 8.67330097,15.9607189 L10.2936893,13.4925414 C11.7072816,15.0428258 13.4082524,15.8817918 15.0820388,15.8817918 C16.7820388,15.8817918 17.9315534,15.0681604 17.9315534,13.4925414 C17.9315534,12.075751 16.9898058,11.6031627 15.4470874,10.9727202 L12.6228155,9.84435478 C10.4529126,8.97810534 9.3538835,7.6129586 9.3538835,5.25001723 C9.3538835,2.31022585 11.9674757,0.131447749 15.3160194,0.131447749 C18.1674757,0.131447749 20.0237864,1.20816948 21.0966019,2.31022585 L19.4752427,4.75209433 C18.3237864,3.70168163 16.9393204,2.94066835 15.4742718,2.94066835 C13.9043689,2.94066835 12.726699,3.67537259 12.726699,4.9362576 C12.726699,6.32673897 13.8509709,6.82563628 14.7936893,7.21929744 L17.8014563,8.452899 C18.9529126,8.92548727 19.8412621,9.58223881 20.4432039,10.3159686 C20.8626214,10.8421494 21.042233,11.2611452 21.1218447,11.5758792 C21.1995146,11.8906133 21.3325243,12.416794 21.3325243,13.1787817" id="Fill-1" fill="#1A9567"></path>
                <path d="M23.7601942,18.4553029 L27.107767,18.4553029 L27.107767,5.74901199 L23.7601942,5.74901199 L23.7601942,18.4553029 Z M23.4203883,1.86404406 C23.4203883,0.787322319 24.2572816,-5.32907052e-15 25.4330097,-5.32907052e-15 C26.6106796,-5.32907052e-15 27.4485437,0.787322319 27.4485437,1.86404406 C27.4485437,2.96610042 26.6106796,3.72808811 25.4330097,3.72808811 C24.2572816,3.72808811 23.4203883,2.96610042 23.4203883,1.86404406 L23.4203883,1.86404406 Z" id="Fill-3" fill="#1A9567"></path>
                <polygon id="Fill-5" fill="#1A9567" points="30.4271845 18.4553029 33.7495146 18.4553029 33.7495146 0.342017493 30.4271845 0.342017493"></polygon>
                <path d="M37.068932,18.4553029 L40.4165049,18.4553029 L40.4165049,5.74901199 L37.068932,5.74901199 L37.068932,18.4553029 Z M36.7291262,1.86404406 C36.7291262,0.787322319 37.5650485,-5.32907052e-15 38.7427184,-5.32907052e-15 C39.9203883,-5.32907052e-15 40.7553398,0.787322319 40.7553398,1.86404406 C40.7553398,2.96610042 39.9203883,3.72808811 38.7427184,3.72808811 C37.5650485,3.72808811 36.7291262,2.96610042 36.7291262,1.86404406 L36.7291262,1.86404406 Z" id="Fill-6" fill="#1A9567"></path>
                <path d="M54.3024272,17.0369534 C54.0402913,17.2737348 52.7325243,18.7431432 49.3597087,18.7431432 C45.9072816,18.7431432 42.7150485,16.3548672 42.7150485,12.2068089 C42.7150485,8.033416 46.0121359,5.51359482 49.411165,5.51359482 C52.6024272,5.51359482 53.857767,6.79981445 54.1975728,7.13988312 L53.281068,9.66067872 C52.8907767,9.2933266 51.7665049,8.32184101 49.8033981,8.32184101 C47.8160194,8.32184101 46.2199029,9.71329679 46.2199029,12.0499291 C46.2199029,14.385587 47.8160194,15.9076136 49.9868932,15.9076136 C52.1567961,15.9076136 53.3606796,14.5697503 53.3606796,14.5697503 L54.3024272,17.0369534 Z" id="Fill-7" fill="#1A9567"></path>
                <path d="M62.1974757,8.21679974 C60.0003883,8.21679974 58.7965049,9.89765494 58.7965049,12.0754586 C58.7965049,14.2542367 60.0003883,15.961401 62.1974757,15.961401 C64.3431068,15.961401 65.5984466,14.2542367 65.5984466,12.0754586 C65.5984466,9.89765494 64.3431068,8.21679974 62.1974757,8.21679974 M55.3178641,12.1543857 C55.3178641,8.13787263 58.2994175,5.5137897 62.1974757,5.5137897 C66.0673786,5.5137897 69.0499029,8.13787263 69.0499029,12.1543857 C69.0499029,16.1708989 66.0673786,18.7433381 62.1974757,18.7433381 C58.2994175,18.7433381 55.3178641,16.1708989 55.3178641,12.1543857" id="Fill-8" fill="#1A9567"></path>
                <path d="M80.9190291,12.0754586 C80.9190291,9.94929861 79.5335922,8.08525455 77.3869903,8.08525455 C75.2170874,8.08525455 73.9627184,9.94929861 73.9627184,12.0754586 C73.9627184,14.2815202 75.3229126,16.0130446 77.4937864,16.0130446 C79.5073786,16.0130446 80.9190291,14.464709 80.9190291,12.0754586 L80.9190291,12.0754586 Z M80.9714563,16.4593239 L80.8947573,16.4593239 C79.8733981,18.0865866 78.3054369,18.7433381 76.5520388,18.7433381 C72.8374757,18.7433381 70.5617476,15.8561648 70.5617476,12.0754586 C70.5617476,8.47989012 72.9413592,5.5137897 76.7869903,5.5137897 C78.4879612,5.5137897 79.9267961,6.14325779 80.8151456,7.50840454 L80.8675728,7.50840454 C80.8413592,6.93058011 80.8413592,6.24849394 80.8413592,5.35496106 L80.8413592,0.341627729 L84.1627184,0.341627729 L84.1627184,18.4549131 L80.9976699,18.4549131 L80.9714563,16.4593239 Z" id="Fill-9" fill="#1A9567"></path>
                <path d="M89.9374757,10.9997113 L96.0054369,10.9997113 C95.9520388,9.60825552 95.4297087,8.00730185 93.0763107,8.00730185 C91.0879612,8.00730185 90.0413592,9.37147418 89.9374757,10.9997113 M99.3005825,13.1784894 L89.988932,13.1784894 C90.304466,15.1731042 91.8724272,16.1708989 93.7559223,16.1708989 C95.4568932,16.1708989 96.9733981,15.4098856 97.5753398,14.8846792 L98.8831068,16.6961052 C98.1753398,17.4308095 96.2685437,18.7433381 93.1801942,18.7433381 C89.3617476,18.7433381 86.5374757,16.4067058 86.5374757,12.31224 C86.5374757,8.24213437 89.4928155,5.5137897 93.1034951,5.5137897 C96.9996117,5.5137897 99.3530097,8.08525455 99.3530097,11.4722996 C99.3530097,12.1280767 99.3005825,13.1784894 99.3005825,13.1784894" id="Fill-10" fill="#1A9567"></path>
                <polygon id="Fill-11" fill="#1A9567" points="7.91378641 23.7863909 11.524466 23.7863909 16.1807767 37.2527207 20.8361165 23.7863909 24.2875728 23.7863909 17.6176699 41.9259854 14.5836893 41.9259854"></polygon>
                <path d="M30.3500971,36.3081288 C28.5724272,36.4133649 27.7093204,37.016524 27.7093204,38.0932457 C27.7093204,39.1689931 28.5190291,39.9036973 29.9064078,39.9036973 C31.2141748,39.9036973 32.1821359,39.1436584 32.6258252,38.5122415 L32.6258252,36.1765836 L30.3500971,36.3081288 Z M32.6782524,40.4289037 C32.1549515,41.3477712 30.6918447,42.1877116 28.8073786,42.1877116 C26.3491262,42.1877116 24.3617476,40.8488739 24.3617476,38.1984819 C24.3617476,35.5461411 26.951068,34.5230119 29.5666019,34.3388486 L32.5986408,34.1293507 L32.5986408,33.7883076 C32.5986408,32.1600705 31.527767,31.3990572 29.7753398,31.3990572 C28.1025243,31.3990572 26.7151456,32.0294997 26.1656311,32.4484955 L25.1452427,30.2960264 C26.1132039,29.7191764 27.8928155,28.9581631 30.088932,28.9581631 C33.9598058,28.9581631 35.9471845,30.716971 35.9471845,34.6272736 L35.9471845,41.8992866 L32.7316505,41.8992866 L32.6782524,40.4289037 Z" id="Fill-12" fill="#1A9567"></path>
                <polygon id="Fill-13" fill="#1A9567" points="38.9514563 41.8986045 42.2737864 41.8986045 42.2737864 23.7862935 38.9514563 23.7862935"></polygon>
                <polygon id="Fill-14" fill="#1A9567" points="45.6174757 41.8986045 48.938835 41.8986045 48.938835 23.7862935 45.6174757 23.7862935"></polygon>
                <path d="M54.717767,34.4439873 L60.7876699,34.4439873 C60.7342718,33.0525315 60.2119417,31.4515778 57.8566019,31.4515778 C55.8701942,31.4515778 54.8235922,32.8167246 54.717767,34.4439873 M64.0828155,36.6227654 L54.771165,36.6227654 C55.0847573,38.6173802 56.6546602,39.6151749 58.5381553,39.6151749 C60.2371845,39.6151749 61.7536893,38.8541616 62.3556311,38.3289552 L63.6633981,40.1403812 C62.9575728,40.8760599 61.0478641,42.1876141 57.9624272,42.1876141 C54.1420388,42.1876141 51.317767,39.8519562 51.317767,35.756516 C51.317767,31.6873848 54.2750485,28.9580657 57.8828155,28.9580657 C61.7799029,28.9580657 64.1352427,31.530505 64.1352427,34.9165756 C64.1352427,35.5733271 64.0828155,36.6227654 64.0828155,36.6227654" id="Fill-15" fill="#1A9567"></path>
                <path d="M64.703301,29.1936777 L68.2081553,29.1936777 L71.556699,38.1981896 L74.8528155,29.1936777 L78.3314563,29.1936777 L72.4469903,43.6061585 C71.5314563,45.8375546 70.4838835,46.913302 68.7062136,46.913302 C66.9003883,46.913302 65.7246602,46.3880956 65.7246602,46.3880956 L66.4042718,43.814682 C66.4042718,43.814682 67.2926214,44.1303904 67.9207767,44.1303904 C68.5741748,44.1303904 69.1256311,43.9472016 69.3858252,43.29045 L69.9353398,41.9779213 L64.703301,29.1936777 Z" id="Fill-16" fill="#1A9567"></path>
                <polygon id="Fill-17" fill="#B6BFC5" points="1.65201186e-13 41.8995789 3.14951456 41.8995789 3.14951456 0.551515387 1.65201186e-13 0.551515387"></polygon>
                <polygon id="Fill-18" fill="#B6BFC5" points="-5.06261699e-14 3.71347198 5.79320388 3.71347198 5.79320388 0.551515387 -5.06261699e-14 0.551515387"></polygon>
                <polygon id="Fill-19" fill="#B6BFC5" points="-5.06261699e-14 41.8995789 5.79320388 41.8995789 5.79320388 38.7376223 -5.06261699e-14 38.7376223"></polygon>
            </g>
            <polygon id="Fill-20" fill="#B6BFC5" points="104 42 107 42 107 1 104 1"></polygon>
            <polygon id="Fill-21" fill="#B6BFC5" points="101 42 107 42 107 39 101 39"></polygon>
            <polygon id="Fill-22" fill="#B6BFC5" points="101 4 107 4 107 1 101 1"></polygon>
        </g>
    </g>
</svg>